<svg xmlns="http://www.w3.org/2000/svg" width="498.69" height="90.99" fill="#09c">
  <path d="M498.69 90.95V46.78a23.94 23.94 0 0 0-23.92-23.91h-50.7v6h50.7a17.92 17.92 0 0 1 17.9 17.9v10.19l-2.25-1.52A18.59 18.59 0 0 0 480 52.26h-53.58a18.7 18.7 0 0 0-18.68 18.69v1.3a18.7 18.7 0 0 0 18.68 18.69H480a18.59 18.59 0 0 0 10.42-3.18l2.25-1.52v4.7zm-18.69-6h-53.58a12.69 12.69 0 0 1-12.67-12.68v-1.3a12.69 12.69 0 0 1 12.67-12.67H480a12.68 12.68 0 0 1 12.67 12.67v1.3A12.69 12.69 0 0 1 480 84.94z" />
  <path d="M294.86 61.55v-20a18.71 18.71 0 0 0-18.69-18.69h-53.61a18.71 18.71 0 0 0-18.7 18.7v49.39h91v-6h-85v-23.4zm-84.94-20a12.7 12.7 0 0 1 12.68-12.68h53.57a12.7 12.7 0 0 1 12.69 12.69v14h-79z" />
  <path d="M125.86 90.95h43.12a23.88 23.88 0 0 0 15.51-5.73l2.39-2v7.77h6V22.87h-6v44.17a17.92 17.92 0 0 1-17.9 17.9h-43.12a17.92 17.92 0 0 1-17.9-17.9V22.87h-6v44.17a23.93 23.93 0 0 0 23.9 23.91z" />
  <path d="M329.72 28.88h43.14a17.93 17.93 0 0 1 17.9 17.64h6a23.94 23.94 0 0 0-23.9-23.65h-43.14a23.91 23.91 0 0 0-15.51 5.74l-2.39 2v-7.78h-6v68.08h6V46.78a17.92 17.92 0 0 1 17.9-17.9z"  />
  <path d="M67.04 0H23.92A24 24 0 0 0 0 23.92v43.12a23.94 23.94 0 0 0 23.92 23.91h43.12a23.77 23.77 0 0 0 13.66-4.3l1-.7 4.46 4.44 4.25-4.25-4.46-4.46.7-1a23.77 23.77 0 0 0 4.3-13.66v-43.1A23.94 23.94 0 0 0 67.04 0zm17.9 67a17.92 17.92 0 0 1-2.3 8.75l-.94 1.66-34.13-34.09-4.25 4.25L77.45 81.7l-1.66.94a17.92 17.92 0 0 1-8.75 2.3H23.92a17.92 17.92 0 0 1-17.9-17.9V23.92a17.92 17.92 0 0 1 17.9-17.9h43.12a17.92 17.92 0 0 1 17.9 17.9z" />
</svg>
